<mxfile host="app.diagrams.net" modified="2024-01-10T18:53:23.074Z" agent="Mozilla/5.0 (Macintosh; Intel Mac OS X 10_15_7) AppleWebKit/537.36 (KHTML, like Gecko) Chrome/120.0.0.0 Safari/537.36" etag="_GgeBo2_RLeqrEpGFbeN" version="21.8.2" type="device">
  <diagram id="w3W-gc0-AikpSJgXkLqI" name="Абстракция Интерфейс">
    <mxGraphModel dx="1062" dy="578" grid="1" gridSize="10" guides="1" tooltips="1" connect="1" arrows="1" fold="1" page="1" pageScale="1" pageWidth="827" pageHeight="1169" math="0" shadow="0">
      <root>
        <mxCell id="0" />
        <mxCell id="1" parent="0" />
        <mxCell id="gCXr97HooqAtDsKp2qLB-1" value="Car" style="rounded=0;whiteSpace=wrap;html=1;" vertex="1" parent="1">
          <mxGeometry x="250" y="170" width="120" height="20" as="geometry" />
        </mxCell>
        <mxCell id="gCXr97HooqAtDsKp2qLB-2" value="motor: &lt;strike&gt;GasEngine &lt;/strike&gt;iEng" style="rounded=0;whiteSpace=wrap;html=1;" vertex="1" parent="1">
          <mxGeometry x="250" y="190" width="120" height="30" as="geometry" />
        </mxCell>
        <mxCell id="gCXr97HooqAtDsKp2qLB-3" value="StartEngine(motor)" style="rounded=0;whiteSpace=wrap;html=1;" vertex="1" parent="1">
          <mxGeometry x="250" y="220" width="120" height="60" as="geometry" />
        </mxCell>
        <mxCell id="gCXr97HooqAtDsKp2qLB-4" value="GasEng" style="rounded=0;whiteSpace=wrap;html=1;" vertex="1" parent="1">
          <mxGeometry x="640" y="70" width="120" height="40" as="geometry" />
        </mxCell>
        <mxCell id="gCXr97HooqAtDsKp2qLB-5" style="edgeStyle=orthogonalEdgeStyle;rounded=0;orthogonalLoop=1;jettySize=auto;html=1;exitX=0.5;exitY=1;exitDx=0;exitDy=0;" edge="1" parent="1" source="gCXr97HooqAtDsKp2qLB-4" target="gCXr97HooqAtDsKp2qLB-4">
          <mxGeometry relative="1" as="geometry" />
        </mxCell>
        <mxCell id="gCXr97HooqAtDsKp2qLB-6" value="" style="rounded=0;whiteSpace=wrap;html=1;" vertex="1" parent="1">
          <mxGeometry x="640" y="110" width="120" height="20" as="geometry" />
        </mxCell>
        <mxCell id="gCXr97HooqAtDsKp2qLB-7" value="Start()" style="rounded=0;whiteSpace=wrap;html=1;" vertex="1" parent="1">
          <mxGeometry x="640" y="130" width="120" height="30" as="geometry" />
        </mxCell>
        <mxCell id="gCXr97HooqAtDsKp2qLB-8" value="DisEng" style="rounded=0;whiteSpace=wrap;html=1;" vertex="1" parent="1">
          <mxGeometry x="640" y="190" width="120" height="30" as="geometry" />
        </mxCell>
        <mxCell id="gCXr97HooqAtDsKp2qLB-9" value="" style="rounded=0;whiteSpace=wrap;html=1;" vertex="1" parent="1">
          <mxGeometry x="640" y="220" width="120" height="20" as="geometry" />
        </mxCell>
        <mxCell id="gCXr97HooqAtDsKp2qLB-10" value="Start()" style="rounded=0;whiteSpace=wrap;html=1;" vertex="1" parent="1">
          <mxGeometry x="640" y="240" width="120" height="40" as="geometry" />
        </mxCell>
        <mxCell id="gCXr97HooqAtDsKp2qLB-11" value="Car bmw = new Car(new GasEng());&lt;br&gt;bmw.StartEng();&lt;br&gt;Car haval= new Car(new DieselEng());&lt;br style=&quot;border-color: var(--border-color);&quot;&gt;haval.StartEng();" style="text;html=1;strokeColor=none;fillColor=none;align=center;verticalAlign=middle;whiteSpace=wrap;rounded=0;" vertex="1" parent="1">
          <mxGeometry x="40" y="20" width="230" height="90" as="geometry" />
        </mxCell>
        <mxCell id="gCXr97HooqAtDsKp2qLB-12" value="void StartEng(DisEng)&lt;br&gt;{&lt;br&gt;motor.Start();&lt;br&gt;}" style="text;html=1;strokeColor=none;fillColor=none;align=left;verticalAlign=middle;whiteSpace=wrap;rounded=0;" vertex="1" parent="1">
          <mxGeometry x="50" y="130" width="140" height="90" as="geometry" />
        </mxCell>
        <mxCell id="gCXr97HooqAtDsKp2qLB-13" value="" style="endArrow=classic;html=1;rounded=0;entryX=0;entryY=0.25;entryDx=0;entryDy=0;exitX=1;exitY=0.5;exitDx=0;exitDy=0;" edge="1" parent="1" source="gCXr97HooqAtDsKp2qLB-3" target="gCXr97HooqAtDsKp2qLB-10">
          <mxGeometry width="50" height="50" relative="1" as="geometry">
            <mxPoint x="390" y="320" as="sourcePoint" />
            <mxPoint x="440" y="270" as="targetPoint" />
          </mxGeometry>
        </mxCell>
        <mxCell id="gCXr97HooqAtDsKp2qLB-14" value="1 ...1" style="edgeLabel;html=1;align=center;verticalAlign=middle;resizable=0;points=[];" vertex="1" connectable="0" parent="gCXr97HooqAtDsKp2qLB-13">
          <mxGeometry x="0.0486" y="-2" relative="1" as="geometry">
            <mxPoint as="offset" />
          </mxGeometry>
        </mxCell>
        <mxCell id="gCXr97HooqAtDsKp2qLB-15" value="Архитектурные&amp;nbsp; границы с областями работы программистов" style="text;html=1;strokeColor=none;fillColor=none;align=center;verticalAlign=middle;whiteSpace=wrap;rounded=0;" vertex="1" parent="1">
          <mxGeometry x="230" y="440" width="140" height="30" as="geometry" />
        </mxCell>
        <mxCell id="gCXr97HooqAtDsKp2qLB-16" value="Для раззграничения вводят интерфейсы , абстрактные классы" style="text;html=1;strokeColor=none;fillColor=none;align=center;verticalAlign=middle;whiteSpace=wrap;rounded=0;" vertex="1" parent="1">
          <mxGeometry x="440" y="440" width="170" height="30" as="geometry" />
        </mxCell>
        <mxCell id="gCXr97HooqAtDsKp2qLB-18" value="&amp;lt;&amp;lt; interface&amp;gt;&amp;gt; iEng" style="rounded=0;whiteSpace=wrap;html=1;" vertex="1" parent="1">
          <mxGeometry x="430" y="70" width="120" height="20" as="geometry" />
        </mxCell>
        <mxCell id="gCXr97HooqAtDsKp2qLB-19" value="Start();" style="rounded=0;whiteSpace=wrap;html=1;" vertex="1" parent="1">
          <mxGeometry x="430" y="90" width="120" height="30" as="geometry" />
        </mxCell>
        <mxCell id="gCXr97HooqAtDsKp2qLB-20" value="" style="endArrow=classic;html=1;rounded=0;entryX=0;entryY=0.5;entryDx=0;entryDy=0;" edge="1" parent="1" target="gCXr97HooqAtDsKp2qLB-19">
          <mxGeometry width="50" height="50" relative="1" as="geometry">
            <mxPoint x="370" y="250" as="sourcePoint" />
            <mxPoint x="390" y="270" as="targetPoint" />
          </mxGeometry>
        </mxCell>
        <mxCell id="gCXr97HooqAtDsKp2qLB-21" value="" style="endArrow=none;dashed=1;html=1;rounded=0;entryX=0.5;entryY=1;entryDx=0;entryDy=0;" edge="1" parent="1" target="gCXr97HooqAtDsKp2qLB-19">
          <mxGeometry width="50" height="50" relative="1" as="geometry">
            <mxPoint x="640" y="250" as="sourcePoint" />
            <mxPoint x="390" y="270" as="targetPoint" />
          </mxGeometry>
        </mxCell>
        <mxCell id="gCXr97HooqAtDsKp2qLB-22" value="" style="endArrow=none;dashed=1;html=1;dashPattern=1 3;strokeWidth=1;rounded=0;entryX=0;entryY=0.5;entryDx=0;entryDy=0;exitX=1;exitY=0.5;exitDx=0;exitDy=0;" edge="1" parent="1" source="gCXr97HooqAtDsKp2qLB-19" target="gCXr97HooqAtDsKp2qLB-7">
          <mxGeometry width="50" height="50" relative="1" as="geometry">
            <mxPoint x="340" y="320" as="sourcePoint" />
            <mxPoint x="390" y="270" as="targetPoint" />
            <Array as="points">
              <mxPoint x="600" y="130" />
            </Array>
          </mxGeometry>
        </mxCell>
        <mxCell id="gCXr97HooqAtDsKp2qLB-23" value="" style="endArrow=none;dashed=1;html=1;rounded=0;" edge="1" parent="1">
          <mxGeometry width="50" height="50" relative="1" as="geometry">
            <mxPoint x="40" y="380" as="sourcePoint" />
            <mxPoint x="160" y="380" as="targetPoint" />
          </mxGeometry>
        </mxCell>
        <mxCell id="gCXr97HooqAtDsKp2qLB-24" value="Имплементирование интерфейса (выполнение контракта)" style="text;html=1;strokeColor=none;fillColor=none;align=center;verticalAlign=middle;whiteSpace=wrap;rounded=0;" vertex="1" parent="1">
          <mxGeometry x="180" y="360" width="220" height="30" as="geometry" />
        </mxCell>
        <mxCell id="gCXr97HooqAtDsKp2qLB-25" value="ElectroEng" style="rounded=0;whiteSpace=wrap;html=1;" vertex="1" parent="1">
          <mxGeometry x="400" y="280" width="120" height="30" as="geometry" />
        </mxCell>
        <mxCell id="gCXr97HooqAtDsKp2qLB-27" value="" style="endArrow=none;html=1;rounded=0;" edge="1" parent="1">
          <mxGeometry width="50" height="50" relative="1" as="geometry">
            <mxPoint x="470" y="260" as="sourcePoint" />
            <mxPoint x="550" y="230" as="targetPoint" />
          </mxGeometry>
        </mxCell>
        <mxCell id="gCXr97HooqAtDsKp2qLB-28" value="" style="endArrow=none;html=1;rounded=0;" edge="1" parent="1">
          <mxGeometry width="50" height="50" relative="1" as="geometry">
            <mxPoint x="570" y="260" as="sourcePoint" />
            <mxPoint x="500" y="220" as="targetPoint" />
          </mxGeometry>
        </mxCell>
        <mxCell id="gCXr97HooqAtDsKp2qLB-30" value="" style="rounded=0;whiteSpace=wrap;html=1;" vertex="1" parent="1">
          <mxGeometry x="400" y="310" width="120" height="20" as="geometry" />
        </mxCell>
        <mxCell id="gCXr97HooqAtDsKp2qLB-31" value="Start()" style="rounded=0;whiteSpace=wrap;html=1;" vertex="1" parent="1">
          <mxGeometry x="400" y="330" width="120" height="60" as="geometry" />
        </mxCell>
        <mxCell id="gCXr97HooqAtDsKp2qLB-32" value="" style="endArrow=none;dashed=1;html=1;rounded=0;entryX=0.25;entryY=1;entryDx=0;entryDy=0;" edge="1" parent="1" source="gCXr97HooqAtDsKp2qLB-25" target="gCXr97HooqAtDsKp2qLB-19">
          <mxGeometry width="50" height="50" relative="1" as="geometry">
            <mxPoint x="340" y="310" as="sourcePoint" />
            <mxPoint x="390" y="260" as="targetPoint" />
          </mxGeometry>
        </mxCell>
        <mxCell id="gCXr97HooqAtDsKp2qLB-33" value="Car Chevy= new Car(new ElectroEng());&lt;br&gt;Chevy.StartEng();&lt;br&gt;" style="text;html=1;strokeColor=none;fillColor=none;align=center;verticalAlign=middle;whiteSpace=wrap;rounded=0;" vertex="1" parent="1">
          <mxGeometry x="50" y="495" width="230" height="90" as="geometry" />
        </mxCell>
      </root>
    </mxGraphModel>
  </diagram>
</mxfile>
